<svg version="1.1" xmlns="http://www.w3.org/2000/svg" viewBox="0 0 640 640">
    <path fill="#000" d="M626.89 300.38C624.17 294.33 621.99 291.62 611.4 281.2C588.55 258.53 557.83 238.83 518.53 221.76C465.06 198.56 408.17 186.3 340.68 183.42C220.42 178.34 101.74 214.41 31.98 277.53C18.86 289.26 14.22 296.17 9.58 310.97C1.79 335.57 8.52 382.23 25.77 423.47C30.67 435.37 32.16 437.38 37.5 439.05C41.88 440.45 180.08 417.08 186.81 413.84C191.54 411.39 195.21 407.01 197.14 401.23C197.76 399.21 196.88 383.98 195.3 367.35C191.98 333.38 192.42 329.62 200.82 321.04C205.46 316.4 207.21 315.52 223.92 310.71C298.94 288.73 341.12 288.73 416.13 310.71C432.93 315.61 434.6 316.4 439.33 321.13C447.64 329.62 448.16 334 444.84 367.44C443.18 383.63 442.47 398.87 443 401.32C444.4 406.4 451.05 413.57 455.78 415.15C457.53 415.67 490.52 421.54 528.95 428.11C574.11 435.99 600.2 439.83 602.56 439.05C607.99 437.29 609.65 434.93 615.25 421.1C634.68 372.78 638.97 327.16 626.89 300.38Z"></path>
</svg>